<svg preserveAspectRatio="none" overflow="visible" style="display: block;" width="698.377" height="448.259" viewBox="0 0 698.377 448.259" fill="none" xmlns="http://www.w3.org/2000/svg">
<g id="lettering">
<g id="Vector">
<path d="M87.4455 20.3199L167.547 16.2768L197.665 39.6626L199.964 91.8491L181.05 111.483L206.414 132.618L208.495 179.835L182.944 207.276L96.2049 219.126L109.205 197.299L102.362 41.9824L87.4455 20.3199ZM130.552 48.0313L132.851 100.218L163.034 98.6943L171.829 87.0427L170.405 54.7368L159.519 45.3239L130.552 48.0313ZM134.22 131.281L136.41 180.983L168.75 175.614L179.867 163.846L178.827 140.237L166.67 128.398L134.22 131.281Z" fill-rule="evenodd" clip-rule="evenodd" fill="#050506"/>
<path d="M87.4455 20.3199L86.8809 7.5058L63.8062 8.6705L76.8715 27.645L87.4455 20.3199ZM167.547 16.2768L175.449 6.12158L171.717 3.22369L166.983 3.46264L167.547 16.2768ZM197.665 39.6626L210.475 39.016L210.215 33.1172L205.566 29.5074L197.665 39.6626ZM199.964 91.8491L209.169 100.723L213.018 96.7273L212.774 91.2025L199.964 91.8491ZM181.05 111.483L171.845 102.61L162.252 112.568L172.808 121.364L181.05 111.483ZM206.414 132.618L219.225 131.972L218.976 126.337L214.657 122.738L206.414 132.618ZM208.495 179.835L217.851 188.549L221.543 184.584L221.305 179.188L208.495 179.835ZM182.944 207.276L184.599 219.988L189.157 219.365L192.3 215.99L182.944 207.276ZM96.2049 219.126L85.201 212.609L71.6121 235.424L97.86 231.838L96.2049 219.126ZM109.205 197.299L120.209 203.816L122.185 200.499L122.015 196.653L109.205 197.299ZM102.362 41.9824L115.172 41.3358L115.01 37.6705L112.936 34.6574L102.362 41.9824ZM130.552 48.0313L129.44 35.2566L117.201 36.4005L117.741 48.6779L130.552 48.0313ZM132.851 100.218L120.041 100.864L120.605 113.679L133.416 113.032L132.851 100.218ZM163.034 98.6943L163.599 111.508L169.611 111.205L173.249 106.385L163.034 98.6943ZM171.829 87.0427L182.043 94.7336L184.843 91.0243L184.639 86.3961L171.829 87.0427ZM170.405 54.7368L183.216 54.0902L182.974 48.5934L178.825 45.0061L170.405 54.7368ZM159.519 45.3239L167.939 35.5932L163.832 32.0421L158.408 32.5491L159.519 45.3239ZM134.22 131.281L133.166 118.501L120.866 119.594L121.409 131.928L134.22 131.281ZM136.41 180.983L123.599 181.629L124.232 195.996L138.43 193.64L136.41 180.983ZM168.75 175.614L170.77 188.271L175.054 187.56L178.043 184.396L168.75 175.614ZM179.867 163.846L189.159 172.627L192.917 168.649L192.677 163.199L179.867 163.846ZM178.827 140.237L191.637 139.591L191.414 134.535L187.8 131.015L178.827 140.237ZM166.67 128.398L175.644 119.176L171.458 115.099L165.617 115.618L166.67 128.398ZM87.4455 20.3199L88.0101 33.134L168.112 29.0909L167.547 16.2768L166.983 3.46264L86.8809 7.5058L87.4455 20.3199ZM167.547 16.2768L159.646 26.4319L189.763 49.8178L197.665 39.6626L205.566 29.5074L175.449 6.12158L167.547 16.2768ZM197.665 39.6626L184.855 40.3092L187.154 92.4957L199.964 91.8491L212.774 91.2025L210.475 39.016L197.665 39.6626ZM199.964 91.8491L190.759 82.9754L171.845 102.61L181.05 111.483L190.255 120.357L209.169 100.723L199.964 91.8491ZM181.05 111.483L172.808 121.364L198.172 142.499L206.414 132.618L214.657 122.738L189.293 101.602L181.05 111.483ZM206.414 132.618L193.604 133.265L195.685 180.481L208.495 179.835L221.305 179.188L219.225 131.972L206.414 132.618ZM208.495 179.835L199.139 171.121L173.588 198.562L182.944 207.276L192.3 215.99L217.851 188.549L208.495 179.835ZM182.944 207.276L181.289 194.563L94.5498 206.413L96.2049 219.126L97.86 231.838L184.599 219.988L182.944 207.276ZM96.2049 219.126L107.209 225.642L120.209 203.816L109.205 197.299L98.2011 190.783L85.201 212.609L96.2049 219.126ZM109.205 197.299L122.015 196.653L115.172 41.3358L102.362 41.9824L89.5514 42.629L96.3948 197.946L109.205 197.299ZM102.362 41.9824L112.936 34.6574L98.0195 12.9949L87.4455 20.3199L76.8715 27.645L91.7877 49.3074L102.362 41.9824ZM130.552 48.0313L117.741 48.6779L120.041 100.864L132.851 100.218L145.661 99.5712L143.362 47.3847L130.552 48.0313ZM132.851 100.218L133.416 113.032L163.599 111.508L163.034 98.6943L162.47 85.8802L132.286 87.4037L132.851 100.218ZM163.034 98.6943L173.249 106.385L182.043 94.7336L171.829 87.0427L161.614 79.3518L152.82 91.0034L163.034 98.6943ZM171.829 87.0427L184.639 86.3961L183.216 54.0902L170.405 54.7368L157.595 55.3834L159.019 87.6893L171.829 87.0427ZM170.405 54.7368L178.825 45.0061L167.939 35.5932L159.519 45.3239L151.1 55.0546L161.986 64.4675L170.405 54.7368ZM159.519 45.3239L158.408 32.5491L129.44 35.2566L130.552 48.0313L131.664 60.8061L160.631 58.0986L159.519 45.3239ZM134.22 131.281L121.409 131.928L123.599 181.629L136.41 180.983L149.22 180.336L147.03 130.635L134.22 131.281ZM136.41 180.983L138.43 193.64L170.77 188.271L168.75 175.614L166.731 162.957L134.39 168.326L136.41 180.983ZM168.75 175.614L178.043 184.396L189.159 172.627L179.867 163.846L170.574 155.064L159.458 166.833L168.75 175.614ZM179.867 163.846L192.677 163.199L191.637 139.591L178.827 140.237L166.016 140.884L167.057 164.492L179.867 163.846ZM178.827 140.237L187.8 131.015L175.644 119.176L166.67 128.398L157.696 137.62L169.853 149.459L178.827 140.237ZM166.67 128.398L165.617 115.618L133.166 118.501L134.22 131.281L135.273 144.061L167.723 141.178L166.67 128.398Z" fill="#050506"/>
</g>
<g id="Vector_2">
<path d="M218.148 18.2688L334.353 16.315L317.397 48.9459L263.943 49.8447L264.618 95.8639L312.262 95.0628L301.098 126.352L265.074 126.958L265.841 179.196L320.311 168.328L337.054 200.392L221.069 217.271L235.792 190.898L233.62 42.8901L218.148 18.2688Z" fill-rule="evenodd" clip-rule="evenodd" fill="#050506"/>
<path d="M218.148 18.2688L217.96 5.44378L195.167 5.82702L207.284 25.1104L218.148 18.2688ZM334.353 16.315L345.731 22.2105L355.646 3.12872L334.164 3.48992L334.353 16.315ZM317.397 48.9459L317.585 61.771L325.241 61.6422L328.775 54.8415L317.397 48.9459ZM263.943 49.8447L263.754 37.0196L250.93 37.2352L251.118 50.0603L263.943 49.8447ZM264.618 95.8639L251.793 96.0795L251.982 108.905L264.806 108.689L264.618 95.8639ZM312.262 95.0628L324.341 99.3507L330.558 81.927L312.074 82.2378L312.262 95.0628ZM301.098 126.352L301.286 139.177L310.184 139.028L313.177 130.64L301.098 126.352ZM265.074 126.958L264.886 114.133L252.061 114.349L252.25 127.174L265.074 126.958ZM265.841 179.196L253.016 179.412L253.242 194.784L268.325 191.775L265.841 179.196ZM320.311 168.328L331.683 162.371L327.244 153.87L317.827 155.749L320.311 168.328ZM337.054 200.392L338.875 213.085L356.802 210.476L348.426 194.435L337.054 200.392ZM221.069 217.271L209.873 211.036L197.221 233.699L222.889 229.964L221.069 217.271ZM235.792 190.898L246.988 197.132L248.667 194.124L248.617 190.682L235.792 190.898ZM233.62 42.8901L246.444 42.6745L246.392 39.0851L244.484 36.0485L233.62 42.8901ZM218.148 18.2688L218.336 31.0939L334.541 29.14L334.353 16.315L334.164 3.48992L217.96 5.44378L218.148 18.2688ZM334.353 16.315L322.974 10.4194L306.018 43.0503L317.397 48.9459L328.775 54.8415L345.731 22.2105L334.353 16.315ZM317.397 48.9459L317.208 36.1208L263.754 37.0196L263.943 49.8447L264.131 62.6697L317.585 61.771L317.397 48.9459ZM263.943 49.8447L251.118 50.0603L251.793 96.0795L264.618 95.8639L277.443 95.6483L276.767 49.629L263.943 49.8447ZM264.618 95.8639L264.806 108.689L312.45 107.888L312.262 95.0628L312.074 82.2378L264.43 83.0389L264.618 95.8639ZM312.262 95.0628L300.183 90.775L289.019 122.064L301.098 126.352L313.177 130.64L324.341 99.3507L312.262 95.0628ZM301.098 126.352L300.909 113.527L264.886 114.133L265.074 126.958L265.263 139.783L301.286 139.177L301.098 126.352ZM265.074 126.958L252.25 127.174L253.016 179.412L265.841 179.196L278.666 178.98L277.899 126.742L265.074 126.958ZM265.841 179.196L268.325 191.775L322.795 180.906L320.311 168.328L317.827 155.749L263.357 166.617L265.841 179.196ZM320.311 168.328L308.939 174.284L325.682 206.348L337.054 200.392L348.426 194.435L331.683 162.371L320.311 168.328ZM337.054 200.392L335.234 187.699L219.249 204.578L221.069 217.271L222.889 229.964L338.875 213.085L337.054 200.392ZM221.069 217.271L232.265 223.506L246.988 197.132L235.792 190.898L224.596 184.663L209.873 211.036L221.069 217.271ZM235.792 190.898L248.617 190.682L246.444 42.6745L233.62 42.8901L220.795 43.1057L222.968 191.114L235.792 190.898ZM233.62 42.8901L244.484 36.0485L229.012 11.4272L218.148 18.2688L207.284 25.1104L222.756 49.7317L233.62 42.8901Z" fill="#050506"/>
</g>
<g id="Vector_3">
<path d="M345.98 215.317L363.867 184.516L387.991 45.5858L377.66 36.7037L425.596 17.6045L461.37 193.62L477.291 217.525L426.289 207.959L434.697 189.439L427.129 150.746L389.944 150.121L384.729 188.599L394.914 207.431L345.98 215.317ZM396.21 119.124L421.775 119.554L409.832 62.126L396.21 119.124Z" fill-rule="evenodd" clip-rule="evenodd" fill="#050506"/>
<path d="M345.98 215.317L334.886 208.858L321.275 232.295L348.047 227.981L345.98 215.317ZM363.867 184.516L374.962 190.976L376.112 188.995L376.504 186.737L363.867 184.516ZM387.991 45.5858L400.628 47.8066L401.875 40.6254L396.34 35.867L387.991 45.5858ZM377.66 36.7037L372.891 24.7863L353.249 32.6125L369.311 46.4225L377.66 36.7037ZM425.596 17.6045L438.165 15.0754L435.101 -4.26086e-07L420.827 5.68714L425.596 17.6045ZM461.37 193.62L448.801 196.149L449.303 198.617L450.7 200.715L461.37 193.62ZM477.291 217.525L474.953 230.132L504.814 235.733L487.962 210.43L477.291 217.525ZM426.289 207.959L414.609 202.635L407.84 217.544L423.951 220.566L426.289 207.959ZM434.697 189.439L446.378 194.763L448.072 191.03L447.285 187.003L434.697 189.439ZM427.129 150.746L439.716 148.309L437.718 138.096L427.317 137.921L427.129 150.746ZM389.944 150.121L390.132 137.296L378.76 137.104L377.234 148.371L389.944 150.121ZM384.729 188.599L372.02 186.85L371.458 190.997L373.451 194.682L384.729 188.599ZM394.914 207.431L396.981 220.095L414.78 217.227L406.193 201.348L394.914 207.431ZM396.21 119.124L383.735 116.117L380.016 131.68L396.022 131.949L396.21 119.124ZM421.775 119.554L421.587 132.379L437.593 132.648L434.332 116.968L421.775 119.554ZM409.832 62.126L422.389 59.5399L397.357 59.119L409.832 62.126ZM345.98 215.317L357.075 221.777L374.962 190.976L363.867 184.516L352.773 178.057L334.886 208.858L345.98 215.317ZM363.867 184.516L376.504 186.737L400.628 47.8066L387.991 45.5858L375.354 43.3651L351.23 182.295L363.867 184.516ZM387.991 45.5858L396.34 35.867L386.01 26.9848L377.66 36.7037L369.311 46.4225L379.641 55.3047L387.991 45.5858ZM377.66 36.7037L382.429 48.621L430.365 29.5219L425.596 17.6045L420.827 5.68714L372.891 24.7863L377.66 36.7037ZM425.596 17.6045L413.027 20.1336L448.801 196.149L461.37 193.62L473.938 191.091L438.165 15.0754L425.596 17.6045ZM461.37 193.62L450.7 200.715L466.621 224.62L477.291 217.525L487.962 210.43L472.04 186.525L461.37 193.62ZM477.291 217.525L479.63 204.918L428.628 195.352L426.289 207.959L423.951 220.566L474.953 230.132L477.291 217.525ZM426.289 207.959L437.97 213.282L446.378 194.763L434.697 189.439L423.017 184.116L414.609 202.635L426.289 207.959ZM434.697 189.439L447.285 187.003L439.716 148.309L427.129 150.746L414.542 153.182L422.11 191.876L434.697 189.439ZM427.129 150.746L427.317 137.921L390.132 137.296L389.944 150.121L389.755 162.946L426.941 163.571L427.129 150.746ZM389.944 150.121L377.234 148.371L372.02 186.85L384.729 188.599L397.439 190.348L402.653 151.87L389.944 150.121ZM384.729 188.599L373.451 194.682L383.635 213.515L394.914 207.431L406.193 201.348L396.008 182.516L384.729 188.599ZM394.914 207.431L392.847 194.768L343.914 202.653L345.98 215.317L348.047 227.981L396.981 220.095L394.914 207.431ZM396.21 119.124L396.022 131.949L421.587 132.379L421.775 119.554L421.963 106.729L396.398 106.299L396.21 119.124ZM421.775 119.554L434.332 116.968L422.389 59.5399L409.832 62.126L397.275 64.7121L409.218 122.14L421.775 119.554ZM409.832 62.126L397.357 59.119L383.735 116.117L396.21 119.124L408.685 122.131L422.307 65.1329L409.832 62.126Z" fill="#050506"/>
</g>
<g id="Vector_4">
<path d="M485.539 13.9915L623.686 20.9645L602.418 54.7593L571.292 48.2071L564.996 191.099L580.483 209.315L517.411 214.848L533.597 190.759L539.839 49.1101L503.741 49.7786L478.541 67.1861L485.539 13.9915Z" fill-rule="evenodd" clip-rule="evenodd" fill="#050506"/>
<path d="M485.539 13.9915L486.103 1.17738L474.359 0.584553L472.826 12.2375L485.539 13.9915ZM623.686 20.9645L634.549 27.8508L646.248 9.2607L624.25 8.15036L623.686 20.9645ZM602.418 54.7593L599.854 67.3142L608.56 69.1468L613.281 61.6456L602.418 54.7593ZM571.292 48.2071L573.856 35.6522L559.143 32.5551L558.482 47.5605L571.292 48.2071ZM564.996 191.099L552.186 190.452L551.963 195.508L555.252 199.376L564.996 191.099ZM580.483 209.315L581.683 222.096L606.294 219.937L590.227 201.037L580.483 209.315ZM517.411 214.848L506.756 207.643L491.741 229.987L518.612 227.63L517.411 214.848ZM533.597 190.759L544.253 197.965L546.25 194.993L546.408 191.406L533.597 190.759ZM539.839 49.1101L552.649 49.7567L553.254 36.0275L539.52 36.2818L539.839 49.1101ZM503.741 49.7786L503.422 36.9504L499.571 37.0217L496.411 39.2049L503.741 49.7786ZM478.541 67.1861L465.828 65.4321L462.041 94.2215L485.872 77.7599L478.541 67.1861ZM485.539 13.9915L484.974 26.8056L623.121 33.7786L623.686 20.9645L624.25 8.15036L486.103 1.17738L485.539 13.9915ZM623.686 20.9645L612.823 14.0782L591.555 47.8731L602.418 54.7593L613.281 61.6456L634.549 27.8508L623.686 20.9645ZM602.418 54.7593L604.981 42.2045L573.856 35.6522L571.292 48.2071L568.729 60.762L599.854 67.3142L602.418 54.7593ZM571.292 48.2071L558.482 47.5605L552.186 190.452L564.996 191.099L577.807 191.745L584.103 48.8537L571.292 48.2071ZM564.996 191.099L555.252 199.376L570.738 217.592L580.483 209.315L590.227 201.037L574.741 182.822L564.996 191.099ZM580.483 209.315L579.282 196.533L516.21 202.067L517.411 214.848L518.612 227.63L581.683 222.096L580.483 209.315ZM517.411 214.848L528.066 222.054L544.253 197.965L533.597 190.759L522.942 183.554L506.756 207.643L517.411 214.848ZM533.597 190.759L546.408 191.406L552.649 49.7567L539.839 49.1101L527.028 48.4635L520.787 190.113L533.597 190.759ZM539.839 49.1101L539.52 36.2818L503.422 36.9504L503.741 49.7786L504.06 62.6069L540.158 61.9383L539.839 49.1101ZM503.741 49.7786L496.411 39.2049L471.211 56.6124L478.541 67.1861L485.872 77.7599L511.072 60.3523L503.741 49.7786ZM478.541 67.1861L491.254 68.9402L498.252 15.7455L485.539 13.9915L472.826 12.2375L465.828 65.4321L478.541 67.1861Z" fill="#050506"/>
</g>
<g id="Vector_5">
<path d="M124.766 230.925L131.97 277.125L101.438 262.838L71.4075 257.352L64.5125 276.763L70.4576 381.111L84.9791 395.248L114.931 379.284L146.036 403.628L92.8921 433.826L42.3608 409.569L33.6938 257.447L21.5209 244.409L73.8843 220.576L124.766 230.925Z" fill-rule="evenodd" clip-rule="evenodd" fill="#050506"/>
<path d="M124.766 230.925L137.392 228.798L136.04 220.127L127.457 218.382L124.766 230.925ZM131.97 277.125L126.445 288.733L148.335 298.976L144.596 274.998L131.97 277.125ZM101.438 262.838L106.964 251.231L105.488 250.54L103.881 250.247L101.438 262.838ZM71.4075 257.352L73.8506 244.76L63.0698 242.79L59.3742 253.195L71.4075 257.352ZM64.5125 276.763L52.4792 272.606L51.6073 275.061L51.7548 277.65L64.5125 276.763ZM70.4576 381.111L57.7 381.997L57.9806 386.922L61.4931 390.342L70.4576 381.111ZM84.9791 395.248L76.0146 404.479L82.633 410.922L90.8733 406.53L84.9791 395.248ZM114.931 379.284L122.876 369.162L116.387 364.084L109.036 368.002L114.931 379.284ZM146.036 403.628L152.237 414.741L168.966 405.235L153.981 393.507L146.036 403.628ZM92.8921 433.826L87.2539 445.38L93.2506 448.259L99.0933 444.939L92.8921 433.826ZM42.3608 409.569L29.6032 410.455L30.0279 417.909L36.7226 421.123L42.3608 409.569ZM33.6938 257.447L46.4514 256.561L46.1903 251.979L43.0774 248.645L33.6938 257.447ZM21.5209 244.409L16.3539 232.769L8.66229e-07 240.212L12.1373 253.212L21.5209 244.409ZM73.8843 220.576L76.5755 208.033L72.5157 207.207L68.7173 208.936L73.8843 220.576ZM124.766 230.925L112.14 233.053L119.345 279.253L131.97 277.125L144.596 274.998L137.392 228.798L124.766 230.925ZM131.97 277.125L137.496 265.518L106.964 251.231L101.438 262.838L95.9125 274.446L126.445 288.733L131.97 277.125ZM101.438 262.838L103.881 250.247L73.8506 244.76L71.4075 257.352L68.9644 269.943L98.9952 275.43L101.438 262.838ZM71.4075 257.352L59.3742 253.195L52.4792 272.606L64.5125 276.763L76.5457 280.92L83.4408 261.509L71.4075 257.352ZM64.5125 276.763L51.7548 277.65L57.7 381.997L70.4576 381.111L83.2152 380.225L77.2701 275.877L64.5125 276.763ZM70.4576 381.111L61.4931 390.342L76.0146 404.479L84.9791 395.248L93.9437 386.018L79.4221 371.88L70.4576 381.111ZM84.9791 395.248L90.8733 406.53L120.825 390.565L114.931 379.284L109.036 368.002L79.0849 383.967L84.9791 395.248ZM114.931 379.284L106.986 389.405L138.091 413.75L146.036 403.628L153.981 393.507L122.876 369.162L114.931 379.284ZM146.036 403.628L139.835 392.515L86.6909 422.713L92.8921 433.826L99.0933 444.939L152.237 414.741L146.036 403.628ZM92.8921 433.826L98.5303 422.272L47.999 398.015L42.3608 409.569L36.7226 421.123L87.2539 445.38L92.8921 433.826ZM42.3608 409.569L55.1184 408.682L46.4514 256.561L33.6938 257.447L20.9362 258.334L29.6032 410.455L42.3608 409.569ZM33.6938 257.447L43.0774 248.645L30.9045 235.606L21.5209 244.409L12.1373 253.212L24.3102 266.25L33.6938 257.447ZM21.5209 244.409L26.6879 256.05L79.0513 232.217L73.8843 220.576L68.7173 208.936L16.3539 232.769L21.5209 244.409ZM73.8843 220.576L71.1931 233.12L122.075 243.469L124.766 230.925L127.457 218.382L76.5755 208.033L73.8843 220.576Z" fill="#050506"/>
</g>
<g id="Vector_6">
<path d="M148.99 228.454L209.205 218.803L193.995 245.797L198.115 390.59L237.878 384.169L256.581 359.574L275.26 414.379L154.723 429.905L168.757 401.691L164.529 253.121L148.99 228.454Z" fill-rule="evenodd" clip-rule="evenodd" fill="#050506"/>
<path d="M148.99 228.454L147.044 215.825L127.82 218.907L138.161 235.322L148.99 228.454ZM209.205 218.803L220.333 225.031L233.311 201.998L207.259 206.174L209.205 218.803ZM193.995 245.797L182.866 239.569L181.113 242.681L181.214 246.241L193.995 245.797ZM198.115 390.59L185.335 391.033L185.747 405.53L200.076 403.217L198.115 390.59ZM237.878 384.169L239.839 396.795L244.916 395.975L248.037 391.872L237.878 384.169ZM256.581 359.574L268.685 355.379L260.969 332.74L246.423 351.87L256.581 359.574ZM275.26 414.379L276.815 427.065L292.432 425.053L287.364 410.184L275.26 414.379ZM154.723 429.905L143.283 424.264L132.654 445.633L156.278 442.591L154.723 429.905ZM168.757 401.691L180.197 407.332L181.629 404.453L181.537 401.248L168.757 401.691ZM164.529 253.121L177.309 252.678L177.21 249.194L175.358 246.254L164.529 253.121ZM148.99 228.454L150.936 241.084L211.151 231.432L209.205 218.803L207.259 206.174L147.044 215.825L148.99 228.454ZM209.205 218.803L198.076 212.575L182.866 239.569L193.995 245.797L205.123 252.025L220.333 225.031L209.205 218.803ZM193.995 245.797L181.214 246.241L185.335 391.033L198.115 390.59L210.896 390.146L206.775 245.354L193.995 245.797ZM198.115 390.59L200.076 403.217L239.839 396.795L237.878 384.169L235.918 371.542L196.154 377.963L198.115 390.59ZM237.878 384.169L248.037 391.872L266.739 367.277L256.581 359.574L246.423 351.87L227.72 376.465L237.878 384.169ZM256.581 359.574L244.477 363.769L263.156 418.574L275.26 414.379L287.364 410.184L268.685 355.379L256.581 359.574ZM275.26 414.379L273.705 401.693L153.168 417.219L154.723 429.905L156.278 442.591L276.815 427.065L275.26 414.379ZM154.723 429.905L166.162 435.546L180.197 407.332L168.757 401.691L157.317 396.05L143.283 424.264L154.723 429.905ZM168.757 401.691L181.537 401.248L177.309 252.678L164.529 253.121L151.749 253.565L155.977 402.135L168.757 401.691ZM164.529 253.121L175.358 246.254L159.819 221.587L148.99 228.454L138.161 235.322L153.7 259.989L164.529 253.121Z" fill="#050506"/>
</g>
<path id="Vector_7" d="M277.314 427.976L294.425 396.484L316.1 255.399L305.833 246.581L352.604 226.426L390.248 404.042L406.219 427.976L356.026 419.158L364.011 400.263L356.026 361.213H319.522L314.959 400.263L325.226 419.158L277.314 427.976ZM325.226 329.721H350.322L337.774 271.775L325.226 329.721Z" fill-rule="evenodd" clip-rule="evenodd" fill="#050506" stroke-width="25.5757" stroke="#050506"/>
<g id="Vector_8">
<path d="M525.17 236.951L528.405 283.695L497.017 263.701L468.656 257.676L458.036 269.91L457.212 298.869L524.512 340.274L522.792 400.709L481.954 432.06L421.99 413.595L416.582 362.995L451.104 393.18L481.746 399.285L495.822 385.91L496.539 360.728L429.31 316.805L431.173 251.334L469.623 223.681L525.17 236.951Z" fill-rule="evenodd" clip-rule="evenodd" fill="#050506"/>
<path d="M525.17 236.951L537.925 236.147L537.272 226.711L528.067 224.512L525.17 236.951ZM528.405 283.695L521.586 294.472L542.901 308.049L541.16 282.891L528.405 283.695ZM497.017 263.701L503.837 252.924L501.873 251.673L499.599 251.19L497.017 263.701ZM468.656 257.676L471.237 245.165L463.886 243.603L458.98 249.255L468.656 257.676ZM458.036 269.91L448.36 261.49L445.385 264.917L445.256 269.467L458.036 269.91ZM457.212 298.869L444.432 298.425L444.22 305.85L450.563 309.752L457.212 298.869ZM524.512 340.274L537.293 340.717L537.504 333.293L531.161 329.39L524.512 340.274ZM522.792 400.709L530.616 410.874L535.401 407.201L535.573 401.152L522.792 400.709ZM481.954 432.06L478.262 444.282L484.568 446.224L489.778 442.225L481.954 432.06ZM421.99 413.595L409.277 414.876L410.179 423.317L418.298 425.817L421.99 413.595ZM416.582 362.995L424.962 353.387L400.411 331.92L403.869 364.276L416.582 362.995ZM451.104 393.18L442.724 402.788L445.314 405.053L448.682 405.724L451.104 393.18ZM481.746 399.285L479.324 411.828L485.808 413.12L490.581 408.585L481.746 399.285ZM495.822 385.91L504.657 395.21L508.453 391.603L508.602 386.353L495.822 385.91ZM496.539 360.728L509.319 361.172L509.524 353.979L503.483 350.032L496.539 360.728ZM429.31 316.805L416.53 316.362L416.325 323.554L422.366 327.501L429.31 316.805ZM431.173 251.334L423.668 240.932L418.572 244.597L418.393 250.89L431.173 251.334ZM469.623 223.681L472.52 211.241L466.839 209.884L462.118 213.28L469.623 223.681ZM525.17 236.951L512.415 237.756L515.65 284.499L528.405 283.695L541.16 282.891L537.925 236.147L525.17 236.951ZM528.405 283.695L535.224 272.918L503.837 252.924L497.017 263.701L490.198 274.478L521.586 294.472L528.405 283.695ZM497.017 263.701L499.599 251.19L471.237 245.165L468.656 257.676L466.075 270.186L494.436 276.212L497.017 263.701ZM468.656 257.676L458.98 249.255L448.36 261.49L458.036 269.91L467.712 278.331L478.332 266.096L468.656 257.676ZM458.036 269.91L445.256 269.467L444.432 298.425L457.212 298.869L469.992 299.312L470.816 270.354L458.036 269.91ZM457.212 298.869L450.563 309.752L517.864 351.157L524.512 340.274L531.161 329.39L463.86 287.985L457.212 298.869ZM524.512 340.274L511.732 339.83L510.012 400.265L522.792 400.709L535.573 401.152L537.293 340.717L524.512 340.274ZM522.792 400.709L514.969 390.544L474.131 421.895L481.954 432.06L489.778 442.225L530.616 410.874L522.792 400.709ZM481.954 432.06L485.646 419.837L425.682 401.372L421.99 413.595L418.298 425.817L478.262 444.282L481.954 432.06ZM421.99 413.595L434.703 412.313L429.295 361.713L416.582 362.995L403.869 364.276L409.277 414.876L421.99 413.595ZM416.582 362.995L408.202 372.603L442.724 402.788L451.104 393.18L459.484 383.572L424.962 353.387L416.582 362.995ZM451.104 393.18L448.682 405.724L479.324 411.828L481.746 399.285L484.168 386.741L453.526 380.636L451.104 393.18ZM481.746 399.285L490.581 408.585L504.657 395.21L495.822 385.91L486.987 376.61L472.91 389.984L481.746 399.285ZM495.822 385.91L508.602 386.353L509.319 361.172L496.539 360.728L483.758 360.285L483.042 385.466L495.822 385.91ZM496.539 360.728L503.483 350.032L436.254 306.109L429.31 316.805L422.366 327.501L489.594 371.424L496.539 360.728ZM429.31 316.805L442.09 317.249L443.953 251.777L431.173 251.334L418.393 250.89L416.53 316.362L429.31 316.805ZM431.173 251.334L438.679 261.735L477.129 234.082L469.623 223.681L462.118 213.28L423.668 240.932L431.173 251.334ZM469.623 223.681L466.727 236.121L522.274 249.391L525.17 236.951L528.067 224.512L472.52 211.241L469.623 223.681Z" fill="#050506"/>
</g>
<g id="Vector_9">
<path d="M548.949 222.67L607.443 219.161L590.995 247.048L587.628 306.137L625.628 301.204L628.637 248.401L617.116 229.931L675.681 225.164L660.371 253.13L651.704 405.252L665.431 425.138L604.589 429.746L619.755 404.294L623.551 337.663L585.623 341.339L582.256 400.427L593.777 418.898L537.274 427.594L552.655 398.37L561.25 247.506L548.949 222.67Z" fill-rule="evenodd" clip-rule="evenodd" fill="#050506"/>
<path d="M548.949 222.67L548.028 209.895L528.993 211.037L537.516 228.244L548.949 222.67ZM607.443 219.161L618.465 225.771L630.757 204.932L606.522 206.386L607.443 219.161ZM590.995 247.048L579.972 240.439L578.412 243.082L578.237 246.162L590.995 247.048ZM587.628 306.137L574.87 305.251L573.983 320.834L589.424 318.829L587.628 306.137ZM625.628 301.204L627.425 313.896L637.79 312.551L638.386 302.09L625.628 301.204ZM628.637 248.401L641.394 249.288L641.627 245.206L639.451 241.717L628.637 248.401ZM617.116 229.931L615.925 217.174L595.227 218.859L606.302 236.614L617.116 229.931ZM675.681 225.164L686.903 231.423L698.377 210.463L674.49 212.408L675.681 225.164ZM660.371 253.13L649.149 246.871L647.777 249.378L647.614 252.244L660.371 253.13ZM651.704 405.252L638.947 404.366L638.695 408.78L641.222 412.441L651.704 405.252ZM665.431 425.138L666.55 437.9L688.534 436.235L675.913 417.949L665.431 425.138ZM604.589 429.746L593.595 423.088L580.903 444.387L605.709 442.508L604.589 429.746ZM619.755 404.294L630.749 410.953L632.335 408.291L632.512 405.181L619.755 404.294ZM623.551 337.663L636.309 338.549L637.168 323.47L622.165 324.924L623.551 337.663ZM585.623 341.339L584.236 328.599L573.481 329.642L572.865 340.452L585.623 341.339ZM582.256 400.427L569.498 399.541L569.266 403.622L571.442 407.111L582.256 400.427ZM593.777 418.898L595.87 431.548L614.83 428.63L604.591 412.214L593.777 418.898ZM537.274 427.594L525.954 421.517L514.046 444.142L539.367 440.245L537.274 427.594ZM552.655 398.37L563.975 404.448L565.255 402.015L565.413 399.257L552.655 398.37ZM561.25 247.506L574.008 248.393L574.201 244.997L572.684 241.933L561.25 247.506ZM548.949 222.67L549.87 235.446L608.363 231.937L607.443 219.161L606.522 206.386L548.028 209.895L548.949 222.67ZM607.443 219.161L596.42 212.551L579.972 240.439L590.995 247.048L602.018 253.658L618.465 225.771L607.443 219.161ZM590.995 247.048L578.237 246.162L574.87 305.251L587.628 306.137L600.386 307.023L603.752 247.935L590.995 247.048ZM587.628 306.137L589.424 318.829L627.425 313.896L625.628 301.204L623.832 288.511L585.832 293.444L587.628 306.137ZM625.628 301.204L638.386 302.09L641.394 249.288L628.637 248.401L615.879 247.515L612.871 300.318L625.628 301.204ZM628.637 248.401L639.451 241.717L627.93 223.247L617.116 229.931L606.302 236.614L617.823 255.085L628.637 248.401ZM617.116 229.931L618.307 242.687L676.872 237.92L675.681 225.164L674.49 212.408L615.925 217.174L617.116 229.931ZM675.681 225.164L664.459 218.905L649.149 246.871L660.371 253.13L671.594 259.39L686.903 231.423L675.681 225.164ZM660.371 253.13L647.614 252.244L638.947 404.366L651.704 405.252L664.462 406.138L673.129 254.017L660.371 253.13ZM651.704 405.252L641.222 412.441L654.948 432.328L665.431 425.138L675.913 417.949L662.187 398.062L651.704 405.252ZM665.431 425.138L664.311 412.376L603.469 416.984L604.589 429.746L605.709 442.508L666.55 437.9L665.431 425.138ZM604.589 429.746L615.583 436.405L630.749 410.953L619.755 404.294L608.761 397.636L593.595 423.088L604.589 429.746ZM619.755 404.294L632.512 405.181L636.309 338.549L623.551 337.663L610.794 336.776L606.997 403.408L619.755 404.294ZM623.551 337.663L622.165 324.924L584.236 328.599L585.623 341.339L587.009 354.078L624.937 350.402L623.551 337.663ZM585.623 341.339L572.865 340.452L569.498 399.541L582.256 400.427L595.014 401.313L598.38 342.225L585.623 341.339ZM582.256 400.427L571.442 407.111L582.963 425.582L593.777 418.898L604.591 412.214L593.07 393.743L582.256 400.427ZM593.777 418.898L591.684 406.247L535.181 414.944L537.274 427.594L539.367 440.245L595.87 431.548L593.777 418.898ZM537.274 427.594L548.594 433.671L563.975 404.448L552.655 398.37L541.335 392.293L525.954 421.517L537.274 427.594ZM552.655 398.37L565.413 399.257L574.008 248.393L561.25 247.506L548.493 246.62L539.897 397.484L552.655 398.37ZM561.25 247.506L572.684 241.933L560.383 217.097L548.949 222.67L537.516 228.244L549.817 253.08L561.25 247.506Z" fill="#050506"/>
</g>
</g>
</svg>
